<?xml version="1.0" encoding="utf-8"?>
<!-- Generator: Adobe Illustrator 19.0.0, SVG Export Plug-In . SVG Version: 6.00 Build 0)  -->
<svg version="1.1" id="レイヤー_1" xmlns="http://www.w3.org/2000/svg" xmlns:xlink="http://www.w3.org/1999/xlink" x="0px"
	 y="0px" viewBox="0 0 75 76.1" style="enable-background:new 0 0 75 76.1;" xml:space="preserve">
<style type="text/css">
	.st0{fill:#2BB22B;}
	.st1{fill:#FFFFFF;}
</style>
<g>
	<path class="st0" d="M73.9,14.6c0.8,1,0.5,2,0,3c-5.6,1.1-11.2,2.7-16.9,3c-6.7,0.4-8.2,2.3-5.8,8.8c1.2,3.2,2.5,6.7,2.3,10.1
		c-0.7,17.1-6.8,29.7-23.9,34.1c-0.6,0.2-1.2,0.6-1.7,0.9c-4.3,0.8-8.6,1-13,0c-5.5-2.5-9.5-6.5-12-12c-1.3-3.9-1.9-8.6,0-13
		C5.2,44,7.6,38.3,9.9,32.7c4.6-11.2,11.9-15.6,23.9-14c3.8,0.5,7.6,1.8,11.3,2.8c-0.4-2.1-1.3-4-2.8-4.7c-2.6-1.3-5.6-2.1-8.5-2.7
		c-8.1-1.5-9.7-4.3-6-11.5c4.2-2.9,7-1.8,10,0c3.8,4,7.7,8,11.8,12.3c0.3-0.2,1-0.6,1.7-1C61.6,6.6,64.2,6.7,73.9,14.6z M30.7,62
		c1.3,3.6,2.8,5.6,7,4.7c4.3-0.8,5.7-3,6.2-6.9c0.7-4.9,1.9-9.8,2.8-14.7c0.5-2.8,1.9-6-3.1-6.5c-4.1-0.5-6.3,0.4-6.7,4.9
		c-0.3,3.6-1.3,7.1-1.8,9.8c-2.7-2.1-5.1-5.4-7.2-5.2c-2.3,0.2-4.4,3.6-6.9,6c-0.3-3.8-0.6-7.6-0.8-11.3c-0.1-2.7-1.3-4-4-3.8
		c-2.1,0.2-4.2,0.5-7,0.8c1.2,6.5,2.2,12.5,3.3,18.5c1.5,8.3,4.5,10.2,12.6,7.8C26.9,65.3,28.5,63.6,30.7,62z M26.1,26
		c0.1,0.6,0.2,1.2,0.3,1.8c-2.2,0.6-4.5,0.9-6.5,1.9c-1.5,0.7-2.6,2.2-3.8,3.4c1.4,1.3,2.7,3.4,4.1,3.6c3.3,0.4,6.8-0.3,10.6-0.6
		c-0.5-4.8,1.8-9.9-4-12.2c-3.2-1.2-6.6-1-10,2.6C20.8,26.3,23.5,26.2,26.1,26z M40.7,23.1c-0.5,0-1.1,0-1.6,0c0,4.2,0,8.5,0,12.7
		c0.5,0,1.1,0,1.6,0C40.7,31.6,40.7,27.3,40.7,23.1z M34.1,36.1c0.6,0,1.2,0,1.8-0.1c0-4.3,0-8.7,0-13c-0.6,0-1.2,0-1.8,0
		C34.1,27.4,34.1,31.8,34.1,36.1z"/>
	<path class="st1" d="M30.7,62c-2.3,1.6-3.8,3.3-5.7,3.9c-8.1,2.4-11.1,0.5-12.6-7.8c-1.1-6-2.2-12-3.3-18.5c2.8-0.3,4.9-0.6,7-0.8
		c2.7-0.2,3.9,1.1,4,3.8c0.2,3.8,0.5,7.5,0.8,11.3c2.6-2.4,4.6-5.8,6.9-6c2.1-0.2,4.6,3.1,7.2,5.2c0.5-2.6,1.5-6.2,1.8-9.8
		c0.4-4.5,2.6-5.4,6.7-4.9c5,0.6,3.6,3.7,3.1,6.5c-0.9,4.9-2.1,9.8-2.8,14.7c-0.5,3.9-1.9,6.1-6.2,6.9C33.5,67.6,32,65.6,30.7,62z"
		/>
	<path class="st1" d="M26.1,26c-2.7,0.2-5.3,0.3-9.2,0.6c3.4-3.6,6.8-3.8,10-2.6c5.7,2.2,3.5,7.4,4,12.2c-3.8,0.3-7.3,0.9-10.6,0.6
		c-1.5-0.2-2.8-2.3-4.1-3.6c1.3-1.2,2.3-2.7,3.8-3.4c2-1,4.3-1.3,6.5-1.9C26.3,27.2,26.2,26.6,26.1,26z M27.2,33.3
		c-0.2-0.9-0.4-1.8-0.7-2.7c-2.2,0.5-4.4,1-6.7,1.6c0.2,0.8,0.4,1.6,0.5,2.5C22.7,34.2,24.9,33.7,27.2,33.3z"/>
	<path class="st1" d="M40.7,23.1c0,4.2,0,8.5,0,12.7c-0.5,0-1.1,0-1.6,0c0-4.2,0-8.5,0-12.7C39.6,23.1,40.2,23.1,40.7,23.1z"/>
	<path class="st1" d="M34.1,36.1c0-4.4,0-8.7,0-13.1c0.6,0,1.2,0,1.8,0c0,4.3,0,8.7,0,13C35.3,36.1,34.7,36.1,34.1,36.1z"/>
	<path class="st0" d="M27.2,33.3c-2.3,0.5-4.5,0.9-6.8,1.4c-0.2-0.8-0.4-1.6-0.5-2.5c2.2-0.5,4.4-1,6.7-1.6
		C26.7,31.5,27,32.4,27.2,33.3z"/>
</g>
</svg>
